<?xml version="1.0" encoding="UTF-8"?>
<svg width="600" height="400" viewBox="0 0 600 400" fill="none" xmlns="http://www.w3.org/2000/svg">
  <!-- Background gradient -->
  <rect width="600" height="400" rx="20" fill="url(#paint0_linear)" />
  
  <!-- Decorative elements -->
  <circle cx="150" cy="100" r="50" fill="#5C6BC0" opacity="0.2" />
  <circle cx="450" cy="300" r="70" fill="#3F51B5" opacity="0.2" />
  <circle cx="300" cy="200" r="120" fill="#3949AB" opacity="0.1" />
  
  <!-- Dashboard elements -->
  <rect x="150" y="120" width="300" height="180" rx="10" fill="white" opacity="0.9" />
  
  <!-- Chart elements -->
  <rect x="170" y="150" width="260" height="120" rx="5" fill="#F5F5F5" />
  
  <!-- Chart bars -->
  <rect x="190" y="230" width="20" height="30" rx="3" fill="#3F51B5" />
  <rect x="220" y="210" width="20" height="50" rx="3" fill="#5C6BC0" />
  <rect x="250" y="190" width="20" height="70" rx="3" fill="#3F51B5" />
  <rect x="280" y="170" width="20" height="90" rx="3" fill="#5C6BC0" />
  <rect x="310" y="200" width="20" height="60" rx="3" fill="#3F51B5" />
  <rect x="340" y="220" width="20" height="40" rx="3" fill="#5C6BC0" />
  <rect x="370" y="180" width="20" height="80" rx="3" fill="#3F51B5" />
  
  <!-- Header -->
  <rect x="170" y="130" width="100" height="10" rx="2" fill="#3F51B5" />
  
  <!-- Data points -->
  <circle cx="200" cy="230" r="3" fill="#FF5252" />
  <circle cx="230" cy="210" r="3" fill="#FF5252" />
  <circle cx="260" cy="190" r="3" fill="#FF5252" />
  <circle cx="290" cy="170" r="3" fill="#FF5252" />
  <circle cx="320" cy="200" r="3" fill="#FF5252" />
  <circle cx="350" cy="220" r="3" fill="#FF5252" />
  <circle cx="380" cy="180" r="3" fill="#FF5252" />
  
  <!-- Line connecting data points -->
  <path d="M200 230 L230 210 L260 190 L290 170 L320 200 L350 220 L380 180" stroke="#FF5252" stroke-width="2" fill="none" />
  
  <!-- Gradient definition -->
  <defs>
    <linearGradient id="paint0_linear" x1="0" y1="0" x2="600" y2="400" gradientUnits="userSpaceOnUse">
      <stop stop-color="#5C6BC0" />
      <stop offset="1" stop-color="#3F51B5" />
    </linearGradient>
  </defs>
</svg> 